<svg xmlns="http://www.w3.org/2000/svg" xmlns:xlink="http://www.w3.org/1999/xlink" width="480.157" height="171.223"><defs><path id="b" d="M5.156-3.719c.14 0 .5 0 .5-.344 0-.234-.218-.234-.39-.234H2.984c-1.5 0-2.609 1.64-2.609 2.828C.375-.594.969.11 1.875.11c1.172 0 2.5-1.203 2.5-2.734 0-.172 0-.656-.312-1.094ZM1.891-.109C1.39-.11 1-.47 1-1.187c0-.297.11-1.11.469-1.704.422-.687 1.015-.828 1.36-.828.827 0 .905.656.905.969 0 .469-.203 1.281-.53 1.797-.392.578-.938.844-1.313.844m0 0"/><path id="g" d="M4.86-2.766c.062-.171.077-.312.077-.578 0-.64-.39-1.062-1.14-1.062-.781 0-1.297.515-1.547.875-.047-.578-.469-.875-.922-.875s-.64.39-.734.562c-.172.344-.297.938-.297.969 0 .11.094.11.11.11.109 0 .109-.016.171-.235.172-.703.375-1.187.735-1.187.156 0 .296.078.296.453 0 .218-.03.328-.156.843L.875-.594c-.031.156-.094.39-.094.438 0 .172.14.265.297.265a.41.41 0 0 0 .375-.28c0-.016.125-.485.188-.735l.218-.89c.047-.235.11-.454.172-.673l.11-.453c.015-.094.328-.64.672-.922.218-.156.53-.344.953-.344.437 0 .547.344.547.704 0 .046 0 .218-.11.625L3.078 1.719c-.031.125-.031.14-.031.172 0 .14.11.265.265.265.313 0 .391-.297.422-.406Zm0 0"/><path id="p" d="M3.234-1.422c0-.11-.093-.11-.125-.11-.093 0-.109.048-.125.11-.312.984-1.14 1.313-1.562 1.313-.14 0-.266-.032-.266-.328 0-.235.078-.47.172-.735.453-1.203.86-2.89.86-2.969 0-.171-.11-.265-.282-.265a.41.41 0 0 0-.375.265c-.062.188-.156.672-.218.86-.016.047-.266.922-.297 1.062-.032.094-.125.344-.141.438-.078.281-.312.75-.312 1.078 0 .406.28.812.828.812 1.14 0 1.843-1.203 1.843-1.53m0 0"/><path id="q" d="M6.734-4.969c.11-.062.188-.11.188-.218a.207.207 0 0 0-.203-.204c-.032 0-.047 0-.172.079L1.016-2.72c-.11.063-.188.11-.188.219 0 .125.078.172.188.234L6.546.328c.126.078.141.078.173.078.11 0 .203-.094.203-.203s-.078-.156-.188-.219L1.5-2.5Zm0 0"/><path id="s" d="M4.531-4.984c0-.657-.172-2.047-1.187-2.047-1.39 0-2.922 2.812-2.922 5.094C.422-1 .703.108 1.609.108c1.407 0 2.922-2.859 2.922-5.093M1.47-3.625c.172-.625.375-1.422.781-2.14.266-.485.625-1.048 1.078-1.048.485 0 .547.641.547 1.204 0 .5-.078 1-.312 1.984Zm2 .328c-.11.453-.313 1.297-.703 2.016-.344.687-.72 1.172-1.157 1.172-.328 0-.53-.297-.53-1.22 0-.421.062-1 .312-1.968Zm0 0"/><path id="u" d="M2.297-3.5c.062-.203.156-.594.156-.64 0-.173-.125-.266-.297-.266-.015 0-.297.015-.39.36L.328 1.718c-.031.125-.031.14-.031.172 0 .14.11.265.281.265.203 0 .328-.187.344-.219.047-.078.172-.609.547-2.14.328.266.781.312.968.312.704 0 1.094-.453 1.329-.734a.904.904 0 0 0 .906.734c.344 0 .578-.234.734-.546.172-.36.297-.97.297-.985 0-.11-.094-.11-.125-.11-.094 0-.11.048-.14.188-.157.64-.344 1.235-.75 1.235-.266 0-.297-.266-.297-.453 0-.22.109-.688.187-1.047l.281-1.078c.032-.141.141-.516.172-.672.047-.235.157-.61.157-.672 0-.172-.141-.266-.297-.266-.047 0-.313.016-.391.344l-.469 1.875c-.11.5-.218.906-.25 1.015-.015.047-.484.954-1.297.954-.5 0-.734-.328-.734-.875 0-.282.063-.563.14-.844Zm0 0"/><path id="w" d="M3.656-3.984h.86c.203 0 .297 0 .297-.203 0-.11-.094-.11-.266-.11h-.828l.203-1.14c.047-.204.187-.907.25-1.032.078-.187.25-.343.469-.343.03 0 .297 0 .484.187a.557.557 0 0 0-.547.531c0 .235.188.36.375.36.266 0 .547-.235.547-.61 0-.453-.453-.687-.86-.687-.343 0-.968.187-1.265 1.172-.062.203-.094.312-.328 1.562h-.688c-.203 0-.312 0-.312.188 0 .125.094.125.281.125h.656L2.25-.047c-.187.969-.36 1.875-.875 1.875-.047 0-.281 0-.484-.187.468-.032.562-.391.562-.532 0-.234-.187-.359-.375-.359-.266 0-.547.234-.547.61 0 .437.438.687.844.687.547 0 .953-.594 1.125-.969.328-.625.547-1.828.563-1.906Zm0 0"/><path id="c" d="M.813-1.453C.734-1.22.516-.72.516-.516c0 .266.218.579.687.579.313 0 .672-.125.953-.344.39-.328.453-.703.453-.719 0-.094-.093-.094-.109-.094-.094 0-.11.032-.14.14-.172.5-.72.829-1.141.829-.11 0-.188-.016-.188-.25 0-.047 0-.14.078-.36.375-1 .625-2.093.625-2.109a.23.23 0 0 0-.234-.234c-.14 0-.25.11-.297.187-.047.125-.11.47-.156.594-.031.11-.11.422-.14.531Zm0 0"/><path id="d" d="M1.719-2.75h.703c.14 0 .219 0 .219-.156C2.64-3 2.562-3 2.438-3H1.78l.25-1.031a.3.3 0 0 0 .031-.094c0-.14-.109-.234-.25-.234-.171 0-.265.125-.328.297-.046.187.047-.157-.265 1.062H.516c-.125 0-.22 0-.22.156 0 .094.079.094.204.094h.656L.75-1.11c-.047.173-.11.423-.11.516 0 .407.36.657.75.657.782 0 1.22-.97 1.22-1.063 0-.094-.094-.094-.11-.094-.094 0-.094.016-.156.14-.188.438-.547.829-.922.829-.156 0-.25-.094-.25-.344 0-.062.031-.219.047-.281Zm0 0"/><path id="e" d="M3.36-3.875v-.266H.593v.266Zm0 0"/><path id="f" d="M4.406-6.953c-.062-.14-.093-.188-.265-.188-.157 0-.188.047-.25.188L.516-.203c-.047.094-.047.11-.047.125C.469 0 .53 0 .688 0h6.921c.157 0 .22 0 .22-.078 0-.016 0-.031-.048-.125Zm-.578.812L6.516-.75H1.14Zm0 0"/><path id="j" d="M2.266-3.156h1.687c1.188 0 2.266-.797 2.266-1.797 0-.984-.985-1.86-2.344-1.86H.344v.313h.25c.765 0 .781.11.781.469v5.25c0 .36-.016.469-.781.469h-.25V0c.36-.031 1.094-.031 1.469-.031s1.125 0 1.484.031v-.312h-.25c-.766 0-.781-.11-.781-.47Zm-.032-.25v-2.688c0-.343.016-.406.485-.406h.89c1.579 0 1.579 1.063 1.579 1.547 0 .469 0 1.547-1.579 1.547Zm0 0"/><path id="k" d="M1.672-3.312v-1.094l-1.39.11v.312c.702 0 .78.062.78.562V-.75c0 .438-.109.438-.78.438V0c.39-.016.859-.031 1.14-.031.39 0 .86 0 1.266.031v-.312h-.22c-.734 0-.75-.11-.75-.47v-1.53c0-.985.423-1.876 1.173-1.876.062 0 .093 0 .109.016-.031 0-.234.125-.234.39 0 .266.218.423.437.423a.42.42 0 0 0 .422-.438c0-.312-.312-.61-.734-.61-.735 0-1.094.673-1.22 1.095m0 0"/><path id="l" d="M4.688-2.14c0-1.266-.985-2.329-2.188-2.329C1.25-4.469.281-3.375.281-2.14A2.22 2.22 0 0 0 2.484.11c1.204 0 2.204-.984 2.204-2.25M2.5-.14c-.437 0-.875-.204-1.14-.672-.25-.438-.25-1.047-.25-1.407 0-.39 0-.922.234-1.36a1.35 1.35 0 0 1 1.14-.671c.438 0 .86.219 1.125.656.266.422.266 1 .266 1.375 0 .36 0 .906-.219 1.344-.234.453-.672.734-1.156.734m0 0"/><path id="m" d="M1.719-3.766v-3.156l-1.438.11v.312c.703 0 .782.063.782.563V0h.25c0-.016.078-.156.359-.625.14.234.562.734 1.297.734 1.187 0 2.219-.984 2.219-2.265 0-1.266-.97-2.25-2.11-2.25-.781 0-1.203.468-1.36.64M1.75-1.14v-2.046c0-.188 0-.204.11-.36.39-.562.937-.64 1.171-.64.453 0 .813.265 1.047.64.266.406.281.969.281 1.39 0 .36-.015.954-.296 1.407-.22.313-.594.64-1.125.64-.454 0-.813-.234-1.047-.609-.141-.203-.141-.234-.141-.422m0 0"/><path id="n" d="M3.297 2.39c0-.03 0-.046-.172-.218C1.891.922 1.563-.968 1.563-2.5c0-1.734.375-3.469 1.609-4.703.125-.125.125-.14.125-.172 0-.078-.031-.11-.094-.11-.11 0-1 .688-1.594 1.954C1.11-4.438.984-3.328.984-2.5c0 .781.11 1.984.657 3.125C2.25 1.844 3.094 2.5 3.203 2.5c.063 0 .094-.031.094-.11m0 0"/><path id="o" d="M4.281-5.578v-.297H.688v.297Zm0 0"/><path id="r" d="M1.906-3.766a.524.524 0 1 0-1.047 0c0 .282.235.532.532.532.28 0 .515-.25.515-.532M1.72-.109c0 .28 0 1.062-.625 1.797-.078.078-.078.093-.078.125 0 .078.046.109.093.109.11 0 .829-.797.829-1.953 0-.281-.016-1.031-.547-1.031-.36 0-.532.28-.532.53 0 .266.172.532.532.532.046 0 .062 0 .078-.016a.45.45 0 0 0 .25-.093m0 0"/><path id="t" d="M2.875-2.5c0-.766-.11-1.969-.656-3.11C1.625-6.827.766-7.483.672-7.483a.107.107 0 0 0-.11.109c0 .031 0 .047.188.234.984.985 1.547 2.563 1.547 4.641 0 1.719-.36 3.469-1.594 4.719-.14.125-.14.14-.14.172 0 .062.046.109.109.109.094 0 1-.687 1.578-1.953.516-1.094.625-2.203.625-3.047m0 0"/><path id="h" d="M1.36-4.953c0-.11 0-.266-.173-.266-.171 0-.171.157-.171.266v6.422c0 .11 0 .265.156.265.187 0 .187-.156.187-.265Zm0 0"/><path id="i" d="M7.203-4.5c0-.219-.078-.312-.14-.312-.047 0-.141.046-.141.28-.047.688-.734 1.095-1.39 1.095-.579 0-1.079-.313-1.594-.657-.532-.36-1.079-.718-1.72-.718-.937 0-1.671.703-1.671 1.625 0 .218.078.296.14.296.094 0 .141-.187.141-.234.047-.828.86-1.125 1.39-1.125.579 0 1.079.297 1.595.656.53.36 1.078.719 1.718.719.922 0 1.672-.719 1.672-1.625m0 2.328c0-.297-.125-.312-.14-.312-.047 0-.141.046-.141.265-.047.688-.734 1.11-1.39 1.11-.579 0-1.079-.313-1.594-.672-.532-.36-1.079-.719-1.72-.719-.937 0-1.671.719-1.671 1.625 0 .234.078.313.14.313.094 0 .141-.188.141-.235.047-.844.86-1.14 1.39-1.14.579 0 1.079.312 1.595.656.53.36 1.078.718 1.718.718.953 0 1.672-.734 1.672-1.609m0 0"/><path id="v" d="M1.781-.187c.016.046.032.109.032.171 0 .672-.313 1.25-.75 1.735q-.048.046-.047.093a.1.1 0 0 0 .093.094c.141 0 .422-.375.547-.593a2.7 2.7 0 0 0 .375-1.344c0-.453-.14-1.031-.656-1.031-.297 0-.516.218-.516.53 0 .329.25.516.532.516a.48.48 0 0 0 .39-.171m0 0"/><clipPath id="a"><path d="M0 0h480.156v171.223H0Zm0 0"/></clipPath></defs><g clip-path="url(#a)"><path fill="#FFF" d="M0 171.223h480.156V0H0Zm0 0"/></g><path fill="#CFCFCF" d="M189.734 141.184h30.848l4.215-.004 4.215-.008 4.218-.02 4.215-.039 4.22-.07 4.214-.14 4.219-.255 4.214-.445 4.215-.754 4.22-1.219 4.214-1.894 4.219-2.824 4.215-4.02 4.214-5.488 4.22-7.152 4.214-8.891.555-1.375v34.598Zm0 0"/><path fill="none" stroke="#404040" stroke-miterlimit="10" stroke-width=".797" d="M13.973 141.184h9.203c.23 0 .605 0 .836-.004h3.347c.23 0 .602-.004.836-.004h.836c.23 0 .606 0 .836-.004h.836c.235 0 .606 0 .84-.004h.836c.23-.004.601-.004.836-.004.23 0 .605-.004.836-.004s.605-.004.836-.004c.234 0 .605-.004.836-.004.234-.004.605-.004.836-.007.234 0 .605-.004.84-.008.23 0 .601-.004.835-.004l.836-.012c.23 0 .606-.004.836-.008l.836-.011.836-.012.84-.016c.23-.004.602-.012.836-.015.23-.008.601-.016.836-.02.23-.008.605-.016.836-.023.23-.004.605-.016.836-.024l.836-.027c.234-.008.605-.024.836-.031.234-.012.605-.028.84-.036.23-.011.601-.027.835-.039.23-.011.602-.035.836-.047.23-.011.606-.035.836-.05l.836-.055c.235-.02.606-.047.836-.066.234-.016.606-.051.836-.07a61 61 0 0 0 1.676-.169l.836-.097c.23-.032.605-.078.836-.11a54 54 0 0 0 2.511-.406c.23-.043.602-.117.836-.164.23-.047.602-.129.836-.18.23-.054.606-.14.836-.199s.606-.156.836-.219c.235-.066.606-.172.836-.242.234-.07.606-.187.836-.262a27.806 27.806 0 0 0 1.676-.605c.23-.09.601-.242.836-.34.23-.101.605-.266.836-.375a24.445 24.445 0 0 0 1.672-.844c.234-.125.605-.336.84-.472.23-.14.601-.367.835-.516.23-.148.602-.394.836-.555.23-.16.606-.425.836-.597s.606-.457.836-.64a29.177 29.177 0 0 0 1.672-1.43 39 39 0 0 0 1.676-1.626c.23-.242.601-.648.836-.906.23-.258.605-.683.836-.953.23-.273.605-.723.836-1.012.234-.293.605-.777.836-1.086.234-.308.605-.812.836-1.136.234-.325.605-.856.84-1.203.23-.344.6-.91.835-1.274.23-.363.606-.96.836-1.34.23-.383.606-1.004.836-1.402a73 73 0 0 0 1.672-3.02c.234-.441.606-1.148.84-1.605.23-.457.601-1.207.836-1.68.23-.476.601-1.25.836-1.746.23-.492.605-1.305.836-1.816.23-.516.605-1.352.836-1.883.234-.531.605-1.395.836-1.945.234-.547.605-1.446.836-2.012.234-.563.605-1.48.84-2.063.23-.578.6-1.527.835-2.125l.836-2.175c.23-.614.606-1.602.836-2.227a363 363 0 0 0 1.672-4.59c.234-.648.606-1.703.84-2.363.23-.656.601-1.715.836-2.379.23-.668.601-1.742.836-2.414.23-.672.605-1.758.836-2.434.23-.68.605-1.765.836-2.449.234-.68.605-1.773.836-2.453.234-.684.605-1.777.836-2.457.234-.68.605-1.766.84-2.445.23-.676.6-1.762.835-2.434.23-.672.602-1.746.836-2.414.23-.664.606-1.727.836-2.383.23-.652.606-1.695.836-2.34l.836-2.293c.234-.632.606-1.632.836-2.246.234-.613.605-1.582.84-2.18a159 159 0 0 1 1.672-4.144c.23-.55.605-1.418.836-1.945.234-.528.605-1.36.836-1.86.234-.5.605-1.273.836-1.746.234-.468.605-1.207.84-1.644.23-.442.6-1.125.835-1.535a41.131 41.131 0 0 1 1.672-2.7c.23-.336.606-.847.836-1.148.234-.3.606-.758.836-1.02.234-.261.606-.648.836-.87.234-.223.605-.555.84-.735a8.153 8.153 0 0 1 1.672-1.012 6 6 0 0 1 .836-.273c.23-.059.605-.113.836-.13a6 6 0 0 1 .836.032c.234.031.605.11.84.18.23.07.6.215.835.332.23.113.602.332.836.488.23.156.606.442.836.637.23.2.606.55.836.785.234.238.606.652.836.93.234.273.606.746.836 1.062.234.313.605.848.84 1.2.23.355.601.953.836 1.34.23.386.601 1.034.836 1.456a72 72 0 0 1 1.672 3.254 127.185 127.185 0 0 1 1.676 3.68c.23.535.6 1.426.835 1.988.23.563.602 1.477.836 2.059.23.582.606 1.535.836 2.14.23.602.606 1.582.836 2.2.234.62.606 1.629.836 2.265.234.633.606 1.668.836 2.317.234.648.605 1.703.84 2.359.23.66.601 1.727.836 2.39.23.669.601 1.743.836 2.415l.836 2.449c.23.676.605 1.766.836 2.445.234.68.605 1.774.836 2.453.234.684.605 1.778.835 2.457.235.68.606 1.77.84 2.446.23.675.602 1.754.836 2.425.23.668.602 1.739.836 2.403.23.66.606 1.715.836 2.37.234.653.606 1.692.836 2.34L152 94.48a471 471 0 0 0 1.676 4.465c.23.61.601 1.567.836 2.157.23.593.605 1.53.836 2.109.23.574.605 1.492.836 2.05.234.56.605 1.438.836 1.977.234.543.605 1.399.835 1.926.235.523.606 1.352.84 1.86.23.503.602 1.3.836 1.785a131.085 131.085 0 0 0 1.672 3.383c.23.449.606 1.152.836 1.581.234.43.606 1.098.836 1.512.234.41.605 1.063.836 1.457a106 106 0 0 0 1.676 2.688c.23.355.605.91.836 1.246s.605.86.836 1.18c.234.316.605.812.836 1.117.234.3.605.765.835 1.05a39.26 39.26 0 0 0 3.348 3.633c.23.223.606.567.836.774.234.207.606.527.836.718.234.196.605.493.836.672.234.18.605.457.84.625a29 29 0 0 0 2.508 1.621c.234.133.605.336.836.461.234.121.605.313.835.426.235.113.606.29.84.39.23.106.602.266.836.364.23.098.602.242.836.332.23.09.606.223.836.305a35 35 0 0 0 2.508.765c.234.063.605.157.84.211a52 52 0 0 0 1.672.368c.23.046.605.117.836.16.23.039.605.105.836.14.234.04.605.098.835.133.235.031.606.086.84.117.23.028.602.075.836.106.23.027.602.066.836.094l.836.085.836.075.836.07.836.059.84.054c.23.016.601.035.836.047.23.016.601.035.836.043.23.012.605.031.836.04s.605.026.836.034l.835.032c.235.007.606.02.836.023.235.008.606.02.84.023.23.008.602.016.836.024l.836.016c.23.007.606.011.836.015l.836.016.836.011.84.012c.23.004.601.008.836.008.23.004.601.008.836.008.23.004.605.008.836.008.23.004.605.004.836.007.234 0 .605.004.835.004.235 0 .606.004.836.004.235.004.606.004.84.004.23.004.602.004.836.004.23 0 .606.004.836.004s.606 0 .836.004h.836c.234 0 .605.004.836.004h1.676c.23 0 .601.004.836.004h2.507c.235 0 .606 0 .836.004h207.461"/><path fill="none" stroke="#404040" stroke-miterlimit="10" stroke-width=".797" d="M13.973 141.184h207.461c.23-.004.605-.004.836-.004h2.511c.23 0 .602-.004.836-.004h1.672c.23 0 .606-.004.836-.004h.836c.234-.004.605-.004.84-.004.23 0 .601-.004.836-.004.23 0 .601 0 .836-.004.23 0 .605 0 .836-.004.23 0 .605-.004.836-.004.234 0 .605-.004.835-.004.235-.003.606-.003.836-.007.235 0 .606-.004.84-.008.23 0 .602-.004.836-.008.23 0 .602-.004.836-.008l.836-.012.836-.011.836-.016c.234-.004.605-.008.836-.016.234-.003.605-.011.84-.015.23-.008.601-.016.836-.024.23-.003.601-.015.836-.023.23-.004.605-.016.836-.023l.835-.032c.235-.007.606-.023.836-.035.235-.008.606-.027.84-.039.23-.008.602-.027.836-.043.23-.012.602-.031.836-.047l.836-.054.836-.059.836-.07.836-.075.84-.085c.23-.028.601-.067.836-.098l.836-.102c.23-.031.605-.086.836-.117.23-.035.605-.094.835-.133.235-.035.606-.101.836-.14.235-.043.606-.114.84-.16.23-.047.602-.125.836-.176.23-.051.602-.137.836-.192.23-.054.606-.148.836-.21.23-.063.606-.165.836-.235.234-.066.605-.18.836-.254.234-.074.605-.195.836-.277.234-.082.605-.219.84-.305.23-.09.601-.234.836-.332.23-.098.601-.258.836-.363a27 27 0 0 0 2.507-1.281c.235-.133.606-.352.836-.497.235-.144.606-.386.84-.539.23-.156.602-.414.836-.582.23-.168.602-.445.836-.625.23-.18.606-.48.836-.672a30.618 30.618 0 0 0 1.672-1.492c.234-.219.605-.586.84-.82.23-.238.601-.625.836-.879.23-.25.601-.668.836-.934a57 57 0 0 0 1.671-2.05 57.02 57.02 0 0 0 1.672-2.297c.235-.336.606-.89.84-1.246.23-.356.602-.946.836-1.317.23-.375.602-.98.836-1.37.23-.395.606-1.048.836-1.458.23-.414.605-1.082.836-1.512.234-.43.605-1.144.836-1.593.234-.45.605-1.18.84-1.649.23-.465.601-1.234.836-1.722.23-.489.601-1.29.836-1.797.23-.504.605-1.325.836-1.848s.605-1.383.835-1.926a171.823 171.823 0 0 0 1.672-4.027c.235-.578.606-1.516.84-2.11.23-.59.602-1.546.836-2.156.23-.605.602-1.593.836-2.21.23-.622.606-1.622.836-2.255s.605-1.66.836-2.304c.234-.649.605-1.688.836-2.34.234-.656.605-1.711.836-2.371.234-.664.605-1.735.84-2.403.23-.671.601-1.761.836-2.437.23-.676.605-1.754.836-2.434s.605-1.773.835-2.457c.235-.68.606-1.773.836-2.453.235-.68.606-1.77.836-2.445.235-.68.606-1.773.84-2.45.23-.675.602-1.753.836-2.421.23-.668.602-1.735.836-2.39.23-.66.606-1.704.836-2.352a381 381 0 0 1 1.672-4.582c.234-.618.605-1.598.836-2.2.234-.605.605-1.566.84-2.148.23-.586.601-1.504.836-2.063a129.485 129.485 0 0 1 1.672-3.871c.23-.507.605-1.3.835-1.785.235-.48.606-1.238.836-1.691.235-.45.606-1.145.84-1.563.23-.418.602-1.07.836-1.457.23-.386.602-.984.836-1.34.23-.351.606-.886.836-1.199.23-.316.605-.789.836-1.062.234-.278.605-.692.836-.93a19 19 0 0 1 .836-.785c.234-.195.605-.48.84-.637.23-.156.601-.375.836-.488a6 6 0 0 1 .836-.332c.23-.07.605-.149.835-.18.23-.027.606-.043.836-.031.235.016.606.07.836.129.235.054.606.176.836.273.235.102.606.297.84.438.23.14.602.394.836.574.23.18.606.512.836.734.23.223.605.61.836.871.234.262.605.72.836 1.02.234.3.605.812.836 1.148.234.34.605.914.84 1.29.23.37.601 1.003.836 1.41.23.41.601 1.093.836 1.535a71 71 0 0 1 1.671 3.402 116.354 116.354 0 0 1 1.672 3.793c.235.55.606 1.457.84 2.031.23.575.602 1.52.836 2.114.23.597.606 1.566.836 2.18.23.613.605 1.613.836 2.245.23.63.605 1.653.836 2.293.234.645.605 1.684.836 2.34.234.656.605 1.727.84 2.395.23.664.601 1.73.836 2.402.23.672.601 1.758.836 2.434.23.68.605 1.765.835 2.445s.606 1.773.836 2.457c.235.68.606 1.773.836 2.453.235.684.606 1.77.836 2.45.235.675.606 1.761.84 2.433.23.672.602 1.746.836 2.414.23.664.602 1.723.836 2.379.23.66.605 1.715.836 2.363.23.649.605 1.68.836 2.317.234.636.605 1.652.836 2.273a456 456 0 0 0 1.676 4.402 225.013 225.013 0 0 0 3.344 8.145c.234.531.605 1.367.835 1.883.235.511.606 1.324.84 1.816.23.496.602 1.27.836 1.746a112 112 0 0 0 1.672 3.293c.23.438.605 1.125.836 1.543.234.418.605 1.07.836 1.469.234.398.605 1.02.836 1.402.234.38.605.977.84 1.34a55 55 0 0 0 2.507 3.613c.235.309.606.793.836 1.086.235.29.606.739.836 1.012.235.27.606.695.84.953.23.258.602.664.836.906.23.243.602.614.836.836.23.227.605.578.836.793.23.211.605.54.836.739.234.195.605.504.836.687.234.184.605.473.836.645a37 37 0 0 0 1.676 1.148 27 27 0 0 0 1.671.988c.23.13.606.325.836.442a32 32 0 0 0 1.676.777c.23.098.602.25.836.34.23.094.602.234.836.316.23.082.605.211.836.29.23.074.605.19.836.261.234.07.605.176.836.242.234.063.605.16.836.22.234.058.605.144.84.198a52.759 52.759 0 0 0 3.344.629c.234.035.605.09.835.121.235.032.606.082.836.11l.84.097a55 55 0 0 0 1.672.168c.23.02.605.055.836.07.234.02.605.048.836.067l.836.055c.234.015.605.039.84.05.23.012.601.036.836.047l.835.04c.23.007.606.023.836.035.23.007.606.023.836.03.235.009.606.02.836.028.235.008.606.02.836.024.235.007.606.015.84.023.23.004.602.012.836.02l.836.015.836.016.836.012.836.011c.234.004.605.008.84.008l.836.012c.23 0 .601.004.835.004.23.004.606.008.836.008.23.003.606.003.836.007.235 0 .606.004.836.004.235 0 .606.004.836.004.235 0 .606.004.84.004.23 0 .602 0 .836.004h.836c.23.004.605.004.836.004h.836c.234.004.605.004.836.004h.836c.234 0 .605.004.84.004h3.343c.235.004.606.004.836.004h9.203"/><path fill="none" stroke="#404040" stroke-dasharray="2.98883 1.99255" stroke-miterlimit="10" stroke-width=".399" d="M123.824 141.184V34.614M321.55 141.184V34.614M288.598 141.184V106.55"/><path fill="none" stroke="#404040" stroke-miterlimit="10" stroke-width=".797" d="M92.105 114.543h26.086"/><path fill="#404040" stroke="#404040" stroke-miterlimit="10" stroke-width=".797" d="M89.215 114.543c.355.09 1.918.598 2.89 1.156v-2.312c-.972.554-2.535 1.066-2.89 1.156ZM121.082 114.543c-.355-.09-1.914-.602-2.89-1.156v2.312c.976-.558 2.535-1.066 2.89-1.156Zm0 0"/><use xlink:href="#b" x="99.073" y="123.483" fill="#404040"/><use xlink:href="#c" x="104.766" y="124.977" fill="#404040"/><path fill="none" stroke="#404040" stroke-miterlimit="10" stroke-width=".339" d="M104.766 126.16h2.949"/><use xlink:href="#d" x="107.714" y="124.977" fill="#404040"/><path fill="none" stroke="#404040" stroke-miterlimit="10" stroke-width=".797" d="M327.184 114.543h26.086"/><path fill="#404040" stroke="#404040" stroke-miterlimit="10" stroke-width=".797" d="M324.293 114.543c.355.09 1.918.598 2.89 1.156v-2.312c-.972.554-2.535 1.066-2.89 1.156ZM356.16 114.543c-.355-.09-1.914-.602-2.89-1.156v2.312c.976-.558 2.535-1.066 2.89-1.156Zm0 0"/><use xlink:href="#b" x="334.148" y="123.483" fill="#404040"/><use xlink:href="#e" x="339.758" y="124.977" fill="#404040"/><g fill="#404040"><use xlink:href="#c" x="339.841" y="124.977"/><use xlink:href="#d" x="342.79" y="124.977"/></g><path fill="none" stroke="#404040" stroke-miterlimit="10" stroke-width=".797" d="M222.906 61.258c0 36.715 22.387 73.265 54.567 73.265"/><path fill="#404040" stroke="#404040" stroke-miterlimit="10" stroke-width=".797" d="M280.363 134.523c-.355-.09-1.914-.597-2.89-1.156v2.313c.976-.555 2.535-1.067 2.89-1.157Zm0 0"/><use xlink:href="#f" x="166.591" y="53.065" fill="#404040"/><use xlink:href="#g" x="174.893" y="53.065" fill="#404040"/><use xlink:href="#d" x="179.84" y="54.864" fill="#404040"/><use xlink:href="#h" x="182.849" y="54.864" fill="#404040"/><use xlink:href="#d" x="185.215" y="54.864" fill="#404040"/><use xlink:href="#i" x="191.49" y="53.065" fill="#404040"/><g fill="#404040"><use xlink:href="#j" x="202.006" y="53.065"/><use xlink:href="#k" x="208.787" y="53.065"/><use xlink:href="#l" x="212.689" y="53.065"/><use xlink:href="#m" x="217.67" y="53.065"/><use xlink:href="#n" x="223.205" y="53.065"/></g><use xlink:href="#o" x="226.901" y="53.065" fill="#404040"/><use xlink:href="#p" x="227.079" y="53.065" fill="#404040"/><use xlink:href="#d" x="230.605" y="54.559" fill="#404040"/><use xlink:href="#q" x="236.88" y="53.065" fill="#404040"/><use xlink:href="#f" x="247.396" y="53.065" fill="#404040"/><use xlink:href="#p" x="255.698" y="53.065" fill="#404040"/><use xlink:href="#d" x="259.225" y="54.559" fill="#404040"/><use xlink:href="#r" x="262.732" y="53.065" fill="#404040"/><use xlink:href="#s" x="267.16" y="53.065" fill="#404040"/><use xlink:href="#d" x="271.837" y="54.559" fill="#404040"/><use xlink:href="#t" x="275.345" y="53.065" fill="#404040"/><use xlink:href="#u" x="117.592" y="153.862" fill="#404040"/><use xlink:href="#c" x="123.595" y="155.356" fill="#404040"/><path fill="none" stroke="#404040" stroke-miterlimit="10" stroke-width=".339" d="M123.594 156.543h2.949"/><use xlink:href="#d" x="126.544" y="155.356" fill="#404040"/><use xlink:href="#u" x="315.319" y="153.862" fill="#404040"/><use xlink:href="#e" x="321.239" y="155.356" fill="#404040"/><g fill="#404040"><use xlink:href="#c" x="321.322" y="155.356"/><use xlink:href="#d" x="324.271" y="155.356"/></g><use xlink:href="#f" x="280.926" y="153.862" fill="#404040"/><use xlink:href="#p" x="289.228" y="153.862" fill="#404040"/><use xlink:href="#d" x="292.754" y="155.356" fill="#404040"/><use xlink:href="#p" x="445.829" y="142.768" fill="#404040"/><path fill="none" stroke="#404040" stroke-miterlimit="10" stroke-width=".398" d="M445.828 144.164h3.527"/><use xlink:href="#d" x="449.356" y="145.259" fill="#404040"/><use xlink:href="#v" x="452.863" y="142.768" fill="#404040"/><use xlink:href="#o" x="458.776" y="142.768" fill="#404040"/><use xlink:href="#p" x="458.95" y="142.768" fill="#404040"/><use xlink:href="#d" x="462.476" y="144.263" fill="#404040"/><use xlink:href="#w" x="14.173" y="21.645" fill="#404040"/><use xlink:href="#n" x="20.123" y="21.645" fill="#404040"/><use xlink:href="#p" x="23.997" y="21.645" fill="#404040"/><path fill="none" stroke="#404040" stroke-miterlimit="10" stroke-width=".398" d="M23.996 23.04h3.527"/><use xlink:href="#d" x="27.523" y="24.136" fill="#404040"/><use xlink:href="#r" x="31.031" y="21.645" fill="#404040"/><use xlink:href="#s" x="35.459" y="21.645" fill="#404040"/><use xlink:href="#d" x="40.136" y="23.14" fill="#404040"/><use xlink:href="#t" x="43.644" y="21.645" fill="#404040"/><use xlink:href="#v" x="47.518" y="21.645" fill="#404040"/><use xlink:href="#w" x="53.605" y="21.645" fill="#404040"/><use xlink:href="#n" x="59.555" y="21.645" fill="#404040"/><use xlink:href="#o" x="63.25" y="21.645" fill="#404040"/><use xlink:href="#p" x="63.429" y="21.645" fill="#404040"/><use xlink:href="#d" x="66.955" y="23.14" fill="#404040"/><use xlink:href="#r" x="70.463" y="21.645" fill="#404040"/><use xlink:href="#s" x="74.891" y="21.645" fill="#404040"/><use xlink:href="#d" x="79.568" y="23.14" fill="#404040"/><use xlink:href="#t" x="83.075" y="21.645" fill="#404040"/><path fill="none" stroke="#404040" stroke-miterlimit="10" stroke-width=".399" d="M13.973 141.184h417.43M13.973 141.184V34.879"/></svg>