<svg xmlns="http://www.w3.org/2000/svg" xmlns:xlink="http://www.w3.org/1999/xlink" width="501.045" height="216.853"><defs><path id="b" d="M1.36-.781c0 .36-.032.469-.798.469H.329V0h5.75L6.5-2.578h-.25C6-1.031 5.766-.312 4.063-.312H2.734c-.468 0-.484-.063-.484-.391v-2.672h.89c.97 0 1.079.328 1.079 1.172h.25v-2.64h-.25c0 .859-.11 1.171-1.078 1.171H2.25v-2.406c0-.328.016-.39.484-.39h1.282c1.53 0 1.797.546 1.953 1.937h.25l-.282-2.25H.329v.312h.235c.765 0 .796.11.796.469Zm0 0"/><path id="q" d="M2.547 2.5v-.406h-.969v-9.172h.969v-.406H1.172V2.5Zm0 0"/><path id="w" d="M1.578-7.484H.218v.406h.97v9.172h-.97V2.5h1.36Zm0 0"/><path id="B" d="M3.297 2.39c0-.03 0-.046-.172-.218C1.891.922 1.563-.968 1.563-2.5c0-1.734.375-3.469 1.609-4.703.125-.125.125-.14.125-.172 0-.078-.031-.11-.094-.11-.11 0-1 .688-1.594 1.954C1.11-4.438.984-3.328.984-2.5c0 .781.11 1.984.657 3.125C2.25 1.844 3.094 2.5 3.203 2.5c.063 0 .094-.031.094-.11m0 0"/><path id="D" d="M2.875-2.5c0-.766-.11-1.969-.656-3.11C1.625-6.827.766-7.483.672-7.483a.107.107 0 0 0-.11.109c0 .031 0 .047.188.234.984.985 1.547 2.563 1.547 4.641 0 1.719-.36 3.469-1.594 4.719-.14.125-.14.14-.14.172 0 .062.046.109.109.109.094 0 1-.687 1.578-1.953.516-1.094.625-2.203.625-3.047m0 0"/><path id="c" d="M1.719-2.75h.703c.14 0 .219 0 .219-.156C2.64-3 2.562-3 2.438-3H1.78l.25-1.031a.3.3 0 0 0 .031-.094c0-.14-.109-.234-.25-.234-.171 0-.265.125-.328.297-.046.187.047-.157-.265 1.062H.516c-.125 0-.22 0-.22.156 0 .094.079.094.204.094h.656L.75-1.11c-.047.173-.11.423-.11.516 0 .407.36.657.75.657.782 0 1.22-.97 1.22-1.063 0-.094-.094-.094-.11-.094-.094 0-.094.016-.156.14-.188.438-.547.829-.922.829-.156 0-.25-.094-.25-.344 0-.062.031-.219.047-.281Zm0 0"/><path id="e" d="M2.172-2.531H3c-.11.422-.266 1.047-.266 1.61 0 .28.047.468.079.609.109.359.203.375.312.375.172 0 .328-.141.328-.313 0-.047-.015-.078-.047-.14-.14-.266-.265-.657-.265-1.235 0-.125 0-.406.093-.906h.875c.125 0 .188 0 .266-.047a.3.3 0 0 0 .11-.219C4.484-3 4.311-3 4.186-3H1.563c-.28 0-.484.063-.796.36-.188.156-.453.53-.453.593 0 .078.093.078.125.078.078 0 .078-.015.125-.078.343-.484.78-.484.937-.484h.422c-.219.765-.594 1.594-.797 2.015-.047.079-.11.235-.14.25 0 .032-.016.063-.016.11 0 .11.078.219.25.219.265 0 .343-.313.515-.938Zm0 0"/><path id="j" d="M3.719-2.531c0-.547-.328-.547-.344-.547A.4.4 0 0 0 3-2.703c0 .11.063.172.11.203.124.11.265.281.265.563 0 .312-.469 1.812-1.297 1.812-.562 0-.562-.5-.562-.625 0-.312.125-.703.39-1.36.047-.14.094-.25.094-.359 0-.375-.312-.61-.656-.61C.64-3.078.328-2.124.328-2c0 .078.094.078.125.078.094 0 .094-.031.125-.11.156-.562.453-.843.735-.843.125 0 .171.078.171.234 0 .172-.046.313-.125.47-.296.78-.375 1.077-.375 1.327 0 .688.547.907 1.079.907 1.171 0 1.656-2.016 1.656-2.594m0 0"/><path id="k" d="M1.469-.11c0 .376-.063.829-.547 1.266-.016.032-.047.063-.047.094 0 .047.063.094.094.094.11 0 .703-.563.703-1.39 0-.423-.172-.75-.5-.75a.387.387 0 0 0-.39.39c0 .219.155.406.406.406.171 0 .28-.11.28-.11m0 0"/><path id="l" d="M4.766-2.578c0-.203-.094-.5-.375-.5-.172 0-.36.219-.36.39 0 .235.375.282.375.75 0 .454-.453 1.454-1.234 1.454-.328 0-.61-.235-.703-.547.094-.14.25-.625.25-.813 0-.093-.063-.203-.172-.203-.36 0-.39.75-.39 1-.188.25-.548.563-1 .563-.376 0-.641-.344-.641-.813 0-.812.703-1.484.703-1.594 0-.078-.063-.156-.14-.156-.063 0-.11.031-.157.094-.094.11-.188.265-.266.406-.25.422-.422 1-.422 1.516 0 .547.22 1.094.86 1.094.468 0 .875-.297 1.125-.672.14.422.437.672.89.672C4.33.063 4.766-2 4.766-2.578m0 0"/><path id="n" d="M4.719-3.922c.14-.14.281-.265.437-.375.282-.187.532-.203.625-.219.078 0 .157 0 .157-.14 0-.047-.032-.11-.094-.11-.172 0-.375.032-.563.032-.218 0-.515-.032-.718-.032-.047 0-.141 0-.141.157 0 .093.094.093.125.093.203.016.203.094.203.141 0 .063-.047.11-.094.188-.047.062-.078.109-.125.14L2.797-2.219l-.922-2.047c-.047-.093-.047-.109-.047-.125 0-.125.328-.125.375-.125.094 0 .188 0 .188-.14 0-.016 0-.11-.125-.11-.203 0-.72.032-.922.032-.188 0-.625-.032-.797-.032-.063 0-.14.032-.14.157 0 .093.093.093.187.093.406 0 .437.063.5.22l1.078 2.39-.313 1.265c-.093.36-.093.375-.64.391-.125 0-.203 0-.203.14 0 .079.046.11.109.11.125 0 .297-.016.422-.016.14 0 .344-.015.469-.015.14 0 .297.015.437.015.156 0 .328.016.469.016.047 0 .156 0 .156-.156C3.078-.25 3-.25 2.844-.25c-.11 0-.14 0-.266-.016-.125-.015-.156-.03-.156-.093 0-.047.094-.375.14-.563.047-.234.204-.828.22-.86.015-.109.015-.124.093-.187Zm0 0"/><path id="p" d="M2.844-2.75h.672c.14 0 .234 0 .234-.156C3.75-3 3.656-3 3.531-3h-.64c.156-.89.203-1.203.265-1.406a.384.384 0 0 1 .36-.297s.187 0 .328.078c-.297.094-.313.344-.313.375 0 .156.125.266.281.266.188 0 .391-.157.391-.422 0-.328-.328-.5-.687-.5a.97.97 0 0 0-.844.515c-.14.266-.188.579-.344 1.391h-.547c-.14 0-.234 0-.234.156 0 .094.094.094.219.094h.515c0 .047-.437 2.547-.61 3.297-.03.156-.155.672-.484.672-.015 0-.171 0-.312-.078a.44.44 0 0 0 .313-.375C1.188.609 1.063.5.906.5a.404.404 0 0 0-.39.422c0 .312.328.5.672.5.437 0 .75-.453.828-.61.25-.468.422-1.328.437-1.406Zm0 0"/><path id="d" d="M2.25 17.531h2.266v-.468H2.719v-17h1.797v-.47H2.25Zm0 0"/><path id="o" d="M1.969 17.063H.172v.468h2.266V-.406H.172v.469h1.797Zm0 0"/><path id="f" d="M1.563-1.922h.593c.11 0 .11 0 .125-.031.031-.016.047-.078.047-.11 0-.078-.078-.078-.156-.078h-.547l.094-.421c.031-.126.093-.36.093-.391 0-.078-.062-.172-.187-.172a.26.26 0 0 0-.234.188c-.032.093.03-.141-.203.796H.594c-.094 0-.172 0-.172.125 0 .094.062.094.156.094h.547L.844-.75c-.031.11-.078.266-.078.328 0 .281.265.485.625.485.593 0 .968-.688.968-.782 0-.062-.093-.062-.109-.062-.078 0-.094.015-.11.078-.171.36-.468.594-.734.594-.156 0-.203-.125-.203-.266 0-.078 0-.094.016-.14Zm0 0"/><path id="g" d="M2.703-1.11h1.735c.062 0 .203 0 .203-.14s-.141-.14-.203-.14H2.702v-1.735c0-.062 0-.203-.14-.203s-.141.14-.141.203v1.734H.687c-.062 0-.203 0-.203.141s.141.14.204.14h1.734V.626c0 .078 0 .203.14.203s.141-.125.141-.203Zm0 0"/><path id="h" d="M1.984-3.172c0-.14-.015-.14-.187-.14C1.453-3 .89-3 .797-3H.719v.219h.078c.11 0 .437-.016.734-.14v2.5c0 .14 0 .202-.531.202H.75V0c.266-.016.719-.016 1-.016.297 0 .734 0 1.016.016v-.219h-.25c-.532 0-.532-.062-.532-.203Zm0 0"/><path id="i" d="M2.469-5.219C1.156-4.297.797-2.812.797-1.75c0 .984.297 2.516 1.672 3.484.062 0 .14 0 .14-.078 0-.047-.015-.062-.062-.11C1.609.704 1.28-.468 1.28-1.733c0-1.891.719-2.813 1.282-3.328.03-.032.046-.047.046-.079 0-.078-.078-.078-.14-.078m0 0"/><path id="m" d="M.625-5.219c-.047 0-.125 0-.125.078 0 .032.016.047.063.11.593.547 1.265 1.484 1.265 3.281 0 1.453-.453 2.563-1.203 3.234C.5 1.61.5 1.61.5 1.656c0 .032.016.078.078.078.094 0 .75-.453 1.219-1.328.297-.578.5-1.328.5-2.14C2.297-2.72 2-4.25.625-5.22m0 0"/><path id="r" d="M.266-4.297v.313h.187c.297 0 .594.03.594.422v4.78c0 .36-.266.391-.547.391H.266v.313h2.25v-.313H2.28c-.297 0-.531-.03-.531-.39V-.516c.234.422.797.61 1.219.61 1.234 0 2.219-1.047 2.219-2.25s-.922-2.25-2.094-2.25c-.547 0-1.016.234-1.375.64v-.64Zm4.078 2.313C4.297-1.25 3.906-.204 3-.125h-.062c-.422 0-.813-.234-1.047-.594a.49.49 0 0 1-.141-.343v-1.672c0-.141-.016-.266-.016-.391 0-.531.672-1.031 1.266-1.031 1 0 1.36 1.312 1.36 2.015 0 .047 0 .11-.016.157m0 0"/><path id="s" d="M.266-4.297v.313h.156c.328 0 .625.03.625.5v2.75c0 .406-.281.422-.719.422H.266v.296h2.422v-.296h-.391c-.313 0-.578-.047-.578-.422v-1.313c0-.86.187-2.14 1.172-2.14.046 0 .062 0 .109.015-.156.063-.234.219-.234.39 0 .22.156.376.39.423.281 0 .469-.172.469-.422 0-.406-.375-.625-.734-.625-.594 0-1.11.531-1.22 1.062v-1.062Zm0 0"/><path id="t" d="M2.344-4.469C1.094-4.344.28-3.28.28-2.125.281-1 1.171.094 2.5.094c1.188 0 2.188-.969 2.188-2.235 0-1.171-.891-2.328-2.22-2.328zM1.109-1.89v-.437c0-.766.25-1.922 1.375-1.922.813 0 1.266.688 1.36 1.438.015.218.015.437.015.656 0 .64-.078 1.453-.703 1.812-.203.14-.422.188-.656.188-.719 0-1.234-.563-1.344-1.344-.015-.125-.015-.266-.047-.39m0 0"/><path id="u" d="M1.047-4.297H.266v.313h.78v3.297c0 .343-.296.375-.593.375H.266v.296H2.5v-.296h-.25c-.281 0-.531-.032-.531-.375v-3.297h1.594c.28 0 .5.046.5.578v2.672c0 .406-.282.422-.72.422h-.062v.296H5.25v-.296H5c-.281 0-.531-.047-.531-.407v-3.703l-1.5.125H1.688v-1.016c0-.234 0-.453.109-.671.219-.516.812-.828 1.36-.828.327 0 .624.093.859.328-.25 0-.485.172-.485.437 0 .25.203.469.469.469.234 0 .438-.156.453-.406v-.063c0-.687-.719-.984-1.297-.984-.75 0-1.656.312-2 1.047-.093.203-.11.422-.11.656Zm0 0"/><path id="v" d="M1.484-6.14c0 .687-.28 1.937-1.312 1.937v.219h.86v2.562c0 .328.03.672.187.953.218.407.687.563 1.125.563.812 0 .969-.906.969-1.547v-.36h-.235v.454c0 .437-.094 1.203-.687 1.203-.563 0-.657-.688-.657-1.125v-2.703h1.422v-.313H1.734V-6.14Zm0 0"/><path id="x" d="M.328-6.812v.296h.156c.36 0 .625.047.625.532v5.25c0 .375-.265.422-.546.422H.328v.296h2.219v-.296h-.25c-.281 0-.516-.047-.516-.438v-6.172Zm0 0"/><path id="y" d="M1.75-4.469c-.36.047-.75.11-1.047.36a1.22 1.22 0 0 0-.375.875C.328-1.531 3.094-2.5 3.094-1c0 .594-.547.875-1.094.875-.75 0-1.266-.531-1.406-1.39-.016-.094-.031-.173-.14-.173-.079 0-.126.047-.126.125V.016c.016.047.047.078.094.078h.016c.156 0 .312-.36.437-.39h.016c.078 0 .343.25.562.312.156.062.344.078.516.078.828 0 1.625-.438 1.625-1.344 0-.656-.485-1.203-1.14-1.375-.626-.172-1.642-.172-1.642-.89 0-.61.672-.766 1.11-.766.484 0 1.172.281 1.172 1.125 0 .094 0 .172.11.172.108 0 .14-.079.14-.172v-1.172c0-.063-.031-.14-.11-.14-.156 0-.265.25-.375.25h-.015c-.078 0-.235-.126-.344-.173a1.8 1.8 0 0 0-.578-.078zm0 0"/><path id="E" d="m.547-6.766-.188 2.25h.25c.032-.515.063-1.218.375-1.562.344-.36.907-.375 1.375-.375h.25c.266 0 .547 0 .547.328v5.36c0 .39-.406.453-.765.453h-.688v.296h3.781v-.296h-.671c-.391 0-.782-.047-.782-.454v-5.359c0-.281.172-.328.547-.328h.25c.469 0 1.031.016 1.375.375.313.344.344 1.047.375 1.562h.25l-.187-2.25Zm0 0"/><path id="F" d="M1.11-2.312h2.874c.11 0 .157-.063.157-.188 0-1.047-.641-1.969-1.766-1.969-1.219 0-2.094 1.094-2.094 2.282 0 .906.5 1.734 1.39 2.125.22.109.485.156.735.156h.031c.766 0 1.407-.422 1.672-1.188.016-.031.016-.078.016-.11 0-.062-.031-.109-.11-.109-.14 0-.202.329-.265.438a1.45 1.45 0 0 1-1.25.719c-.36 0-.687-.203-.953-.469-.406-.469-.438-1.11-.438-1.687m.015-.204c0-.78.406-1.734 1.234-1.734h.047c.969.094.969 1.125 1.063 1.734Zm0 0"/><path id="G" d="M3.578-3.86c-.265.016-.469.188-.469.454 0 .281.188.469.454.469.312 0 .468-.22.468-.5V-3.5c-.11-.734-.953-.969-1.531-.969-1.219 0-2.172 1.063-2.172 2.313 0 1.125.875 2.25 2.172 2.25.656 0 1.297-.36 1.563-1.047.03-.063.078-.156.078-.219 0-.078-.047-.125-.125-.125-.141 0-.235.375-.313.516a1.3 1.3 0 0 1-1.094.625C1.547-.156 1.22-1.22 1.172-2v-.125c0-.797.187-1.984 1.281-2.094h.078c.375 0 .766.11 1.047.36m0 0"/><path id="H" d="M.313-6.812v.296h.156c.375 0 .625.047.625.532v5.03c0 .063.015.141.015.22 0 .375-.265.422-.546.422h-.25v.296h2.265v-.296h-.265c-.282 0-.516-.047-.516-.422v-1.813c0-.719.36-1.64 1.36-1.64.624 0 .687.687.687 1.109v2.39c0 .344-.281.375-.594.375h-.172v.297h2.25v-.296h-.25c-.266 0-.531-.047-.531-.391v-2.172c0-.328-.016-.656-.156-.969-.25-.437-.735-.562-1.203-.562-.579 0-1.22.39-1.407.953l-.015-3.469Zm0 0"/><path id="I" d="M.313-4.297v.313h.156c.328 0 .625.03.625.5v2.75c0 .406-.282.422-.719.422H.313v.296h2.265v-.296h-.265c-.282 0-.516-.047-.516-.422v-1.813c0-.719.36-1.64 1.36-1.64.624 0 .687.687.687 1.109v2.39c0 .344-.281.375-.594.375h-.172v.297h2.25v-.296h-.25c-.266 0-.531-.047-.531-.391v-2.172c0-.328-.016-.672-.172-.969-.234-.437-.734-.562-1.187-.562-.61 0-1.25.422-1.438 1.015l-.016-1.015Zm0 0"/><path id="J" d="M1.188-.234v.015C.718-.125.28.313.28.781c0 .938 1.438 1.266 2.203 1.266.829 0 2.204-.297 2.204-1.328 0-.656-.454-1.094-1.047-1.266-.36-.11-.735-.125-1.11-.125h-.906c-.312-.031-.562-.344-.562-.656v-.063c0-.125.078-.39.171-.39.125.031.266.14.422.203.172.047.375.078.563.078.828 0 1.625-.61 1.625-1.453 0-.344-.14-.735-.422-.953v-.016c.281-.187.531-.375.89-.375.032 0 .063 0 .094.016a.26.26 0 0 0-.156.25c0 .156.14.297.297.297.172 0 .281-.141.281-.297a.487.487 0 0 0-.484-.485 1.5 1.5 0 0 0-.953.36.5.5 0 0 1-.11.078h-.015c-.063 0-.141-.078-.188-.11a1.8 1.8 0 0 0-.86-.218c-.78 0-1.624.547-1.624 1.453 0 .328.125.625.328.89.031.032.11.094.11.141s-.063.094-.079.14c-.14.204-.203.454-.203.688 0 .313.14.719.438.86M.813.844V.75c0-.516.453-.828.984-.828h.781c.625 0 1.594.094 1.594.86 0 .718-1.078 1.03-1.688 1.03-.656 0-1.578-.296-1.671-.968m.53-3.594v-.125c0-.547.126-1.297.876-1.297.61 0 .86.578.86 1.219 0 .406-.079 1.219-.86 1.219-.25 0-.5-.125-.672-.344-.156-.188-.172-.438-.203-.672m0 0"/><path id="K" d="M.188-4.297v.313h.156c.281 0 .5.03.672.406.453 1.094.89 2.203 1.359 3.297.031.078.11.187.11.281 0 .016-.016.031-.016.047-.063.203-.172.406-.25.594-.203.5-.5 1.172-1.11 1.172-.156 0-.359-.063-.468-.172.187-.032.39-.141.39-.422A.41.41 0 0 0 .656.797c-.312 0-.468.187-.468.422 0 .5.468.812.921.812.72 0 1.11-.734 1.36-1.328l.297-.719c.343-.859.703-1.703 1.062-2.562l.235-.578c.171-.469.437-.828 1-.828v-.313h-1.61v.313c.235 0 .469.156.469.406 0 .125-.063.265-.11.375-.296.687-.546 1.375-.859 2.047-.015.093-.078.172-.094.265h-.015c-.063-.218-.172-.437-.266-.656-.25-.64-.562-1.297-.797-1.969-.031-.062-.078-.14-.078-.218v-.032c.063-.218.344-.218.547-.218v-.313Zm0 0"/><path id="L" d="M.297-6.812v.296h.406c.344 0 .656.047.656.422V-.75c0 .375-.328.438-.656.438H.297v.296h3.016v-.296h-.407c-.344 0-.656-.063-.656-.438v-5.344c0-.375.328-.422.672-.422h.39v-.296Zm0 0"/><path id="M" d="M3.031-6.812v.296h.156c.344 0 .626.047.626.625l-.016 2.094c-.235-.406-.813-.61-1.266-.61C1.312-4.406.328-3.343.328-2.14c0 1.063.813 2.235 2.14 2.235.516 0 .985-.25 1.313-.64v.64l1.469-.11v-.296h-.172c-.297 0-.61-.032-.61-.5v-6.11Zm-1.86 4.906v-.14c0-.75.079-1.485.767-1.954.203-.11.437-.187.671-.187.485 0 1.172.406 1.172 1.03v2.048a.47.47 0 0 1-.125.312c-.25.39-.687.672-1.156.672-.719 0-1.187-.656-1.297-1.344-.016-.14-.016-.297-.031-.437m0 0"/><path id="N" d="M.172-4.297v.313h.203c.516 0 .656.203.875.5l.938 1.218c.046.047.124.125.124.188-.015.047-.093.125-.124.172C1.594-1.22 1.156-.312.124-.312v.296h1.781v-.296c-.187 0-.297-.188-.297-.329 0-.203.157-.343.282-.484.109-.156.234-.312.359-.453.078-.11.172-.203.234-.313.25.282.454.594.672.891l.188.25c.047.047.11.11.11.188 0 .156-.22.25-.36.25v.296H5.14v-.296h-.172c-.172 0-.36-.016-.516-.094-.172-.094-.297-.281-.422-.438-.328-.437-.672-.875-1-1.312l-.094-.11-.046-.093c0-.047.062-.11.093-.157l.313-.375c.187-.218.344-.453.547-.656a1.67 1.67 0 0 1 1.125-.437v-.313H3.187v.313c.204.046.282.14.282.312 0 .281-.313.547-.485.766-.078.094-.218.297-.265.297-.063 0-.203-.22-.297-.328-.219-.282-.563-.641-.563-.813 0-.14.22-.234.344-.234v-.313Zm0 0"/><path id="O" d="M.328-6.781v.297h.375c.36 0 .656.046.656.437V-.75c0 .375-.328.438-.671.438h-.36v.296h5.75l.406-2.562h-.25c-.14.906-.265 1.906-1.343 2.172-.313.078-.641.094-.953.094H2.656c-.187 0-.406-.032-.406-.329v-2.734h.906c.36 0 .735.031.938.328.11.219.125.485.125.735v.093h.25v-2.64h-.25v.109c0 .531-.125.969-.703 1.047-.203.015-.391.015-.578.015H2.25v-2.437c0-.344.203-.36.406-.36H3.86c.594 0 1.313 0 1.704.532.296.406.343.922.406 1.406h.25L5.937-6.78Zm0 0"/><path id="P" d="M1.781-.187c.016.046.032.109.032.171 0 .672-.313 1.25-.75 1.735q-.048.046-.047.093a.1.1 0 0 0 .093.094c.141 0 .422-.375.547-.593a2.7 2.7 0 0 0 .375-1.344c0-.453-.14-1.031-.656-1.031-.297 0-.516.218-.516.53 0 .329.25.516.532.516a.48.48 0 0 0 .39-.171m0 0"/><path id="Q" d="M.344-6.812v.296h.375c.36 0 .64.047.64.438V-.75c0 .375-.328.438-.656.438h-.36v.296h2.938v-.296h-.344c-.421 0-.687-.032-.687-.438v-2.406h1.844c.937-.078 2.125-.656 2.125-1.797 0-1.063-1.047-1.75-2.047-1.86-.156 0-.297-.015-.438-.015-.203 0-.406.016-.593.016Zm1.875 3.39v-2.765c0-.266.172-.297.36-.329h.75c.562 0 1.202.032 1.593.5.234.282.266.688.266 1.047 0 .36-.032.735-.25 1.032-.329.421-.907.515-1.422.515Zm0 0"/><path id="R" d="M.375-4.297v.313h.188c.28 0 .546.03.546.5v2.75c0 .359-.187.422-.78.422v.296h2.14v-.296h-.203c-.25 0-.485-.032-.485-.36v-3.734Zm.828-2.375a.52.52 0 0 0-.453.516c0 .297.25.531.531.531a.527.527 0 0 0 .532-.531.534.534 0 0 0-.532-.516zm0 0"/><path id="z" d="M4.422-2.5c0-1.062-.89-1.922-1.922-1.922-1.078 0-1.953.89-1.953 1.922A1.95 1.95 0 0 0 2.5-.562c1.031 0 1.922-.86 1.922-1.938m0 0"/><path id="A" d="M4.672-3.703c0-.547-.266-.703-.438-.703-.25 0-.5.265-.5.484 0 .125.047.188.157.297.218.203.343.453.343.813 0 .421-.609 2.703-1.765 2.703-.516 0-.75-.344-.75-.875 0-.547.281-1.282.578-2.11.078-.172.125-.312.125-.5 0-.437-.313-.812-.813-.812-.937 0-1.312 1.453-1.312 1.531 0 .11.094.11.11.11.109 0 .109-.032.156-.188.296-1 .718-1.235 1.015-1.235.078 0 .25 0 .25.313 0 .25-.11.531-.172.703-.437 1.156-.562 1.61-.562 2.047 0 1.078.875 1.234 1.328 1.234 1.672 0 2.25-3.296 2.25-3.812m0 0"/><path id="C" d="M6.031-3.703c0-.453-.172-.703-.406-.703-.25 0-.516.234-.516.468 0 .094.047.204.141.297.172.157.36.422.36.844 0 .39-.204.969-.5 1.422-.298.422-.673.766-1.141.766-.563 0-.875-.36-.969-.891.11-.266.344-.906.344-1.187 0-.11-.047-.22-.188-.22-.078 0-.187.032-.265.173-.11.203-.235.843-.235 1.203-.328.468-.719.922-1.344.922-.671 0-.874-.594-.874-1.141 0-1.25 1.015-2.297 1.015-2.422a.18.18 0 0 0-.187-.187c-.125 0-.203.125-.266.218-.5.735-.875 1.922-.875 2.829C.125-.625.344.109 1.172.109c.703 0 1.172-.5 1.531-1.046.094.578.485 1.046 1.094 1.046.781 0 1.25-.609 1.61-1.359.25-.484.624-1.844.624-2.453m0 0"/><clipPath id="a"><path d="M0 0h501.047v216.852H0Zm0 0"/></clipPath></defs><g clip-path="url(#a)"><path fill="#FFF" d="M0 216.852h501.047V0H0Zm0 0"/></g><path fill="#CFCFCF" d="M81.297 160.293s2.133-.031 2.953-.047c.816-.012 2.129-.035 2.95-.05.816-.016 2.132-.04 2.948-.06a727 727 0 0 0 5.903-.136c.816-.02 2.129-.055 2.949-.078.82-.027 2.133-.067 2.95-.09l2.952-.098 2.95-.109 2.949-.113c.82-.035 2.133-.094 2.953-.13.816-.034 2.129-.097 2.95-.136a745 745 0 0 0 8.85-.48c.817-.047 2.13-.13 2.95-.18.82-.055 2.133-.14 2.95-.2.82-.054 2.132-.148 2.952-.206.817-.059 2.13-.16 2.95-.223.816-.062 2.132-.168 2.949-.234l2.949-.25c.82-.075 2.133-.192 2.953-.266.816-.078 2.129-.2 2.95-.281.82-.078 2.132-.211 2.948-.297.82-.082 2.133-.223 2.954-.309.816-.09 2.129-.234 2.949-.328.816-.094 2.133-.246 2.949-.344.82-.097 2.133-.261 2.95-.363.82-.101 2.132-.27 2.952-.379.817-.11 2.13-.285 2.95-.398s2.132-.297 2.949-.414c.82-.117 2.133-.313 2.953-.434.816-.125 2.129-.328 2.95-.453.82-.129 2.132-.34 2.948-.477.82-.132 2.133-.351 2.953-.492.817-.14 2.13-.367 2.95-.511l2.949-.536c.82-.152 2.133-.398 2.95-.558.82-.156 2.132-.414 2.952-.578.817-.164 2.13-.43 2.95-.598.82-.172 2.132-.45 2.949-.625a399 399 0 0 0 5.902-1.312c.816-.192 2.133-.5 2.95-.696.82-.195 2.132-.512 2.948-.715.82-.203 2.133-.535 2.954-.742.816-.21 2.129-.55 2.949-.765.82-.22 2.133-.57 2.95-.793.82-.227 2.132-.59 2.952-.82a366.593 366.593 0 0 0 14.75-4.492 373 373 0 0 0 11.801-4.106 348.778 348.778 0 0 0 5.902-2.234c.817-.317 2.133-.833 2.95-1.16.82-.329 2.132-.86 2.949-1.192a370.577 370.577 0 0 0 8.852-3.773 327 327 0 0 0 5.902-2.68 409.135 409.135 0 0 0 5.898-2.812c.82-.403 2.133-1.052 2.953-1.462.817-.41 2.13-1.074 2.95-1.492a422 422 0 0 0 5.902-3.094c.816-.441 2.129-1.152 2.949-1.601a435 435 0 0 0 5.902-3.317 388.983 388.983 0 0 0 5.898-3.465c.821-.492 2.134-1.285 2.95-1.789.82-.504 2.133-1.316 2.953-1.828a344.148 344.148 0 0 0 5.898-3.777c.82-.535 2.133-1.399 2.954-1.945.816-.547 2.129-1.43 2.949-1.989.816-.558 2.133-1.46 2.95-2.031a460.437 460.437 0 0 0 5.902-4.18c.816-.593 2.128-1.55 2.949-2.156a384 384 0 0 0 5.902-4.437 465 465 0 0 0 2.95-2.282 412.231 412.231 0 0 0 11.8-9.578 435 435 0 0 0 5.902-5.058 829 829 0 0 0 2.95-2.598c.82-.73 2.949-2.648 2.949-2.648l.004 69.214H81.297Zm0 0"/><path fill="none" stroke="#404040" stroke-miterlimit="10" stroke-width=".797" d="M81.297 129.027h292.09000000000003M39.57 129.027h333.81700000000006"/><use xlink:href="#b" x="387.954" y="131.517" fill="#404040"/><use xlink:href="#c" x="394.734" y="133.011" fill="#404040"/><use xlink:href="#d" x="398.242" y="120.458" fill="#404040"/><use xlink:href="#e" x="404.142" y="126.602" fill="#404040"/><use xlink:href="#f" x="408.801" y="127.598" fill="#404040"/><g fill="#404040"><use xlink:href="#g" x="411.608" y="127.598"/><use xlink:href="#h" x="416.728" y="127.598"/></g><use xlink:href="#i" x="420.616" y="126.602" fill="#404040"/><use xlink:href="#j" x="423.73" y="126.602" fill="#404040"/><g fill="#404040"><use xlink:href="#k" x="427.966" y="126.602"/><use xlink:href="#l" x="430.332" y="126.602"/></g><use xlink:href="#m" x="435.6" y="126.602" fill="#404040"/><path fill="none" stroke="#404040" stroke-miterlimit="10" stroke-width=".398" d="M404.14 129.027h34.575"/><use xlink:href="#n" x="413.178" y="134.952" fill="#404040"/><use xlink:href="#f" x="417.861" y="135.949" fill="#404040"/><g fill="#404040"><use xlink:href="#g" x="420.669" y="135.949"/><use xlink:href="#h" x="425.789" y="135.949"/></g><use xlink:href="#o" x="439.909" y="120.458" fill="#404040"/><path fill="none" stroke="#404040" stroke-miterlimit="10" stroke-width=".797" d="M81.297 160.293s2.133-.031 2.953-.047c.816-.012 2.129-.035 2.95-.05.816-.016 2.132-.04 2.948-.06a727 727 0 0 0 5.903-.136c.816-.02 2.129-.055 2.949-.078.82-.027 2.133-.067 2.95-.09l2.952-.098 2.95-.109 2.949-.113c.82-.035 2.133-.094 2.953-.13.816-.034 2.129-.097 2.95-.136a745 745 0 0 0 8.85-.48c.817-.047 2.13-.13 2.95-.18.82-.055 2.133-.14 2.95-.2.82-.054 2.132-.148 2.952-.206.817-.059 2.13-.16 2.95-.223.816-.062 2.132-.168 2.949-.234l2.949-.25c.82-.075 2.133-.192 2.953-.266.816-.078 2.129-.2 2.95-.281.82-.078 2.132-.211 2.948-.297.82-.082 2.133-.223 2.954-.309.816-.09 2.129-.234 2.949-.328.816-.094 2.133-.246 2.949-.344.82-.097 2.133-.261 2.95-.363.82-.101 2.132-.27 2.952-.379.817-.11 2.13-.285 2.95-.398s2.132-.297 2.949-.414c.82-.117 2.133-.313 2.953-.434.816-.125 2.129-.328 2.95-.453.82-.129 2.132-.34 2.948-.477.82-.132 2.133-.351 2.953-.492.817-.14 2.13-.367 2.95-.511l2.949-.536c.82-.152 2.133-.398 2.95-.558.82-.156 2.132-.414 2.952-.578.817-.164 2.13-.43 2.95-.598.82-.172 2.132-.45 2.949-.625a399 399 0 0 0 5.902-1.312c.816-.192 2.133-.5 2.95-.696.82-.195 2.132-.512 2.948-.715.82-.203 2.133-.535 2.954-.742.816-.21 2.129-.55 2.949-.765.82-.22 2.133-.57 2.95-.793.82-.227 2.132-.59 2.952-.82a366.593 366.593 0 0 0 14.75-4.492 373 373 0 0 0 11.801-4.106 348.791 348.791 0 0 0 5.902-2.234c.817-.317 2.133-.833 2.95-1.16.82-.329 2.132-.86 2.949-1.192a370.613 370.613 0 0 0 8.852-3.773 327 327 0 0 0 5.902-2.68 409.135 409.135 0 0 0 5.898-2.812c.82-.403 2.133-1.052 2.953-1.462.817-.41 2.13-1.074 2.95-1.492a422 422 0 0 0 5.902-3.094c.816-.441 2.129-1.152 2.949-1.601a435 435 0 0 0 5.902-3.317 388.95 388.95 0 0 0 5.898-3.465 329 329 0 0 0 2.95-1.789 606 606 0 0 0 2.953-1.828 344.124 344.124 0 0 0 5.898-3.777 426 426 0 0 0 2.954-1.945c.816-.547 2.129-1.43 2.949-1.989.816-.558 2.133-1.46 2.95-2.031a460.436 460.436 0 0 0 5.902-4.18c.816-.593 2.128-1.55 2.949-2.156a384 384 0 0 0 5.902-4.437c.816-.625 2.129-1.641 2.95-2.282a412.209 412.209 0 0 0 11.8-9.578 435 435 0 0 0 5.902-5.058 829 829 0 0 0 2.95-2.598c.82-.73 2.949-2.648 2.949-2.648"/><use xlink:href="#b" x="387.951" y="62.305" fill="#404040"/><use xlink:href="#c" x="394.731" y="63.8" fill="#404040"/><use xlink:href="#d" x="398.239" y="51.247" fill="#404040"/><use xlink:href="#p" x="404.139" y="57.39" fill="#404040"/><use xlink:href="#f" x="408.024" y="58.387" fill="#404040"/><g fill="#404040"><use xlink:href="#g" x="410.831" y="58.387"/><use xlink:href="#h" x="415.951" y="58.387"/></g><use xlink:href="#i" x="419.839" y="57.39" fill="#404040"/><use xlink:href="#j" x="422.953" y="57.39" fill="#404040"/><use xlink:href="#m" x="427.188" y="57.39" fill="#404040"/><path fill="none" stroke="#404040" stroke-miterlimit="10" stroke-width=".398" d="M404.14 59.816h26.16"/><use xlink:href="#n" x="408.971" y="65.741" fill="#404040"/><use xlink:href="#f" x="413.654" y="66.737" fill="#404040"/><g fill="#404040"><use xlink:href="#g" x="416.462" y="66.737"/><use xlink:href="#h" x="421.582" y="66.737"/></g><use xlink:href="#o" x="431.497" y="51.247" fill="#404040"/><use xlink:href="#b" x="131.052" y="144.102" fill="#404040"/><use xlink:href="#q" x="138.331" y="144.102" fill="#404040"/><g fill="#404040"><use xlink:href="#r" x="142.758" y="144.102"/><use xlink:href="#s" x="148.291" y="144.102"/><use xlink:href="#t" x="152.193" y="144.102"/><use xlink:href="#u" x="157.173" y="144.102"/><use xlink:href="#v" x="162.706" y="144.102"/></g><use xlink:href="#w" x="168.24" y="144.102" fill="#404040"/><use xlink:href="#b" x="318.822" y="115.786" fill="#404040"/><use xlink:href="#q" x="326.101" y="115.786" fill="#404040"/><g fill="#404040"><use xlink:href="#x" x="330.528" y="115.786"/><use xlink:href="#t" x="333.295" y="115.786"/><use xlink:href="#y" x="338.275" y="115.786"/><use xlink:href="#y" x="342.203" y="115.786"/></g><use xlink:href="#w" x="347.793" y="115.786" fill="#404040"/><path fill="none" stroke="#404040" stroke-dasharray="2.98883 2.98883" stroke-miterlimit="10" stroke-width=".399" d="M81.297 176.219v-15.926"/><use xlink:href="#z" x="78.807" y="162.505" fill="#404040"/><path fill="none" stroke="#404040" stroke-dasharray="2.98883 2.98883" stroke-miterlimit="10" stroke-width=".399" d="M266.066 176.219v-47.192"/><use xlink:href="#z" x="263.572" y="131.24" fill="#404040"/><use xlink:href="#A" x="78.704" y="200.189" fill="#404040"/><path fill="none" stroke="#404040" stroke-miterlimit="10" stroke-width=".398" d="M78.703 201.586h5.188M256.316 194.504h5.188"/><use xlink:href="#A" x="256.316" y="200.189" fill="#404040"/><use xlink:href="#B" x="261.502" y="200.189" fill="#404040"/><use xlink:href="#C" x="265.377" y="200.189" fill="#404040"/><use xlink:href="#D" x="271.935" y="200.189" fill="#404040"/><use xlink:href="#E" x="437.901" y="173.672" fill="#404040"/><g fill="#404040"><use xlink:href="#F" x="444.267" y="173.672"/><use xlink:href="#G" x="448.693" y="173.672"/></g><g fill="#404040"><use xlink:href="#H" x="452.841" y="173.672"/><use xlink:href="#I" x="458.374" y="173.672"/><use xlink:href="#t" x="463.907" y="173.672"/><use xlink:href="#x" x="468.888" y="173.672"/><use xlink:href="#t" x="471.654" y="173.672"/><use xlink:href="#J" x="476.635" y="173.672"/><use xlink:href="#K" x="481.615" y="173.672"/></g><g fill="#404040"><use xlink:href="#L" x="437.901" y="185.627"/><use xlink:href="#I" x="441.497" y="185.627"/><use xlink:href="#M" x="447.031" y="185.627"/><use xlink:href="#F" x="452.564" y="185.627"/><use xlink:href="#N" x="456.99" y="185.627"/></g><use xlink:href="#A" x="465.568" y="185.627" fill="#404040"/><g fill="#404040"><use xlink:href="#O" x="14.173" y="21.035"/><use xlink:href="#N" x="20.952" y="21.035"/><use xlink:href="#r" x="26.209" y="21.035"/></g><g fill="#404040"><use xlink:href="#F" x="32.021" y="21.035"/><use xlink:href="#G" x="36.447" y="21.035"/><use xlink:href="#v" x="40.874" y="21.035"/><use xlink:href="#F" x="44.747" y="21.035"/><use xlink:href="#M" x="49.174" y="21.035"/></g><g fill="#404040"><use xlink:href="#J" x="58.024" y="21.035"/><use xlink:href="#s" x="63.005" y="21.035"/><use xlink:href="#t" x="66.906" y="21.035"/><use xlink:href="#y" x="71.886" y="21.035"/><use xlink:href="#y" x="75.815" y="21.035"/></g><g fill="#404040"><use xlink:href="#r" x="83.06" y="21.035"/><use xlink:href="#s" x="88.594" y="21.035"/><use xlink:href="#t" x="92.495" y="21.035"/><use xlink:href="#u" x="97.475" y="21.035"/><use xlink:href="#v" x="103.009" y="21.035"/><use xlink:href="#P" x="106.882" y="21.035"/></g><use xlink:href="#Q" x="14.173" y="32.99" fill="#404040"/><g fill="#404040"><use xlink:href="#F" x="20.673" y="32.99"/><use xlink:href="#s" x="25.099" y="32.99"/><use xlink:href="#R" x="29" y="32.99"/><use xlink:href="#t" x="31.767" y="32.99"/></g><use xlink:href="#M" x="37.026" y="32.99" fill="#404040"/><g fill="#404040"><use xlink:href="#u" x="45.877" y="32.99"/><use xlink:href="#N" x="51.41" y="32.99"/><use xlink:href="#F" x="56.667" y="32.99"/><use xlink:href="#M" x="61.094" y="32.99"/></g><g fill="#404040"><use xlink:href="#G" x="69.955" y="32.99"/><use xlink:href="#t" x="74.381" y="32.99"/><use xlink:href="#y" x="79.361" y="32.99"/><use xlink:href="#v" x="83.29" y="32.99"/></g><path fill="none" stroke="#7F7F7F" stroke-miterlimit="10" stroke-width=".199" d="M81.297 178.344v-4.25m184.77 4.25v-4.25"/><path fill="none" stroke="#404040" stroke-miterlimit="10" stroke-width=".399" d="M39.57 176.219h381.895"/><path fill="#404040" d="m423.457 176.219-3.187-1.594 1.195 1.594-1.195 1.594"/><path fill="none" stroke="#404040" stroke-miterlimit="10" stroke-width=".399" d="M39.57 176.219V42.53"/><path fill="#404040" d="m39.57 40.54-1.593 3.187 1.593-1.196 1.594 1.196"/></svg>